<svg id="Layer_1" data-name="Layer 1" xmlns="http://www.w3.org/2000/svg" viewBox="0 0 48 48"><defs><style>.cls-1{fill:#edebf2;}.cls-2{fill:#dad7e5;}.cls-3{fill:#425b72;}.cls-4{fill:#374f68;}.cls-5{fill:#c6c3d8;}</style></defs><title>knife, blade, weapon, cut, chop, kitchen, cooking</title><path class="cls-1" d="M34.86,21.56l-9.81,9.81-7.48-7.48L32.79,8.67A25.25,25.25,0,0,1,44.73,2a23.32,23.32,0,0,1,2.77-.52,53.4,53.4,0,0,1-5.18,10.77A53.55,53.55,0,0,1,34.86,21.56Z"/><path class="cls-2" d="M33,19.69,23.18,29.5l-5.61-5.61L32.79,8.67A25.25,25.25,0,0,1,44.73,2a54.18,54.18,0,0,1-4.28,8.38A53.55,53.55,0,0,1,33,19.69Z"/><path class="cls-3" d="M9.81,41,22.24,28.56l-4.67-4.67L1.66,39.79a4,4,0,0,0,0,5.61h0a4,4,0,0,0,5.62,0l.27-.27a4.17,4.17,0,0,0,1-1.55l.34-1A3.79,3.79,0,0,1,9.81,41Z"/><rect class="cls-4" x="13.79" y="27.71" width="6.61" height="2.65" transform="translate(25.54 -3.59) rotate(45)"/><circle class="cls-5" cx="4.47" cy="42.6" r="1.32"/></svg>