<?xml version="1.0" standalone="no"?>
<!DOCTYPE svg PUBLIC "-//W3C//DTD SVG 20010904//EN"
 "http://www.w3.org/TR/2001/REC-SVG-20010904/DTD/svg10.dtd">
<svg version="1.0" xmlns="http://www.w3.org/2000/svg"
 width="512.000000pt" height="512.000000pt" viewBox="0 0 512.000000 512.000000"
 preserveAspectRatio="xMidYMid meet">

<g transform="translate(0.000000,512.000000) scale(0.100000,-0.100000)"
fill="#000000" stroke="none">
<path d="M4418 5106 c-32 -24 -39 -61 -19 -99 l18 -35 -1209 -1209 c-665 -664
-1232 -1236 -1260 -1270 l-51 -63 -77 0 c-90 0 -120 -18 -120 -74 0 -40 25
-65 73 -73 l35 -5 -19 -47 c-16 -37 -158 -185 -748 -776 -788 -789 -760 -757
-746 -853 6 -45 16 -56 278 -319 265 -265 273 -272 320 -278 56 -9 122 12 154
48 12 12 162 263 334 557 l314 535 6 -135 c3 -74 12 -153 19 -175 64 -194 301
-259 453 -125 25 23 54 62 68 92 24 52 24 57 27 430 l3 377 43 -33 c77 -59
173 -68 256 -26 38 20 255 237 285 284 10 16 20 57 23 92 4 54 1 71 -22 117
-25 51 -96 129 -141 155 -18 10 10 41 321 354 220 222 347 357 359 383 23 49
26 143 6 202 l-14 43 56 59 c57 59 67 84 48 120 -8 14 0 28 43 70 47 47 56 51
73 40 11 -6 31 -9 44 -6 14 4 272 255 601 584 538 539 577 581 583 619 13 85
-4 114 -163 276 -175 178 -208 200 -254 164z m-1197 -1969 c33 -41 39 -56 39
-95 l0 -45 -262 -264 -262 -263 -45 45 -45 45 136 137 c74 76 139 148 143 161
4 13 2 36 -5 52 -14 33 -59 55 -92 45 -13 -4 -85 -69 -161 -143 l-137 -136
-48 47 -47 47 290 290 290 290 83 -83 c46 -45 102 -104 123 -130z m-807 -989
c-188 -189 -215 -221 -248 -288 -50 -104 -55 -160 -56 -603 0 -367 -1 -380
-21 -408 -25 -35 -68 -59 -106 -59 -37 0 -97 41 -112 78 -9 22 -11 165 -9 573
4 529 5 546 26 617 56 185 113 273 296 460 l140 143 150 -150 150 -151 -210
-212z m220 -82 c47 -20 96 -83 96 -125 0 -30 -13 -47 -102 -138 -122 -124
-145 -139 -193 -123 -47 16 -105 84 -105 125 0 17 3 34 6 37 3 4 30 -5 60 -19
64 -29 101 -23 123 22 18 37 5 73 -36 101 l-32 21 47 45 c45 44 78 67 95 68 4
0 22 -6 41 -14z m-1290 -874 c-196 -339 -362 -623 -367 -630 -8 -10 -46 23
-164 140 l-153 153 517 518 518 517 3 -41 c3 -37 -24 -87 -354 -657z"/>
</g>
</svg>
